<svg width="128" height="40" viewBox="0 0 128 40" fill="none" xmlns="http://www.w3.org/2000/svg">
<path d="M124 40H4C1.8 40 0 38.2 0 36V4C0 1.8 1.8 0 4 0H124C126.2 0 128 1.8 128 4V36C128 38.2 126.2 40 124 40Z" fill="black"/>
<path d="M27 19.8C27 16.7 29.6 15.2 29.7 15.1C28.2 13 26 12.7 25.2 12.6C23.3 12.4 21.4 13.7 20.5 13.7C19.5 13.7 18 12.6 16.4 12.6C14.3 12.6 12.4 13.8 11.3 15.7C9.10001 19.5 10.7 25.1 12.8 28.2C13.9 29.7 15.1 31.4 16.7 31.3C18.3 31.2 18.9 30.3 20.8 30.3C22.7 30.3 23.2 31.3 24.9 31.3C26.6 31.3 27.7 29.8 28.7 28.3C29.9 26.6 30.4 24.9 30.4 24.8C30.3 24.7 27 23.5 27 19.8Z" fill="white"/>
<path d="M23.9 10.6C24.7 9.49998 25.3 8.09998 25.2 6.59998C24 6.69998 22.4 7.39998 21.6 8.49998C20.8 9.39998 20.1 10.9 20.3 12.3C21.6 12.4 23 11.6 23.9 10.6Z" fill="white"/>
<path d="M49.8 31.1H47.6L46.4 27.3H42.2L41.1 31.1H39L43.2 18.2H45.8L49.8 31.1ZM46 25.7L44.9 22.3C44.8 22 44.6 21.1 44.2 19.9C44.1 20.4 43.9 21.3 43.6 22.3L42.5 25.7H46Z" fill="white"/>
<path d="M60.5 26.4C60.5 28 60.1 29.2 59.2 30.2C58.4 31 57.5 31.4 56.3 31.4C55.1 31.4 54.2 31 53.7 30.1V35H51.6V25C51.6 24 51.6 23 51.5 21.9H53.3L53.4 23.4C54.1 22.3 55.1 21.7 56.5 21.7C57.6 21.7 58.5 22.1 59.2 23C60.1 23.8 60.5 24.9 60.5 26.4ZM58.4 26.4C58.4 25.5 58.2 24.7 57.8 24.2C57.4 23.6 56.8 23.3 56 23.3C55.5 23.3 55 23.5 54.6 23.8C54.2 24.1 53.9 24.6 53.8 25.1C53.7 25.4 53.7 25.6 53.7 25.7V27.3C53.7 28 53.9 28.5 54.3 29C54.7 29.5 55.3 29.7 55.9 29.7C56.7 29.7 57.3 29.4 57.7 28.8C58.2 28.2 58.4 27.4 58.4 26.4Z" fill="white"/>
<path d="M71.2 26.4C71.2 28 70.8 29.2 69.9 30.2C69.1 31 68.2 31.4 67 31.4C65.8 31.4 64.9 31 64.4 30.1V35H62.3V25C62.3 24 62.3 23 62.2 21.9H64L64.1 23.4C64.8 22.3 65.8 21.7 67.2 21.7C68.3 21.7 69.2 22.1 69.9 23C70.8 23.8 71.2 24.9 71.2 26.4ZM69.1 26.4C69.1 25.5 68.9 24.7 68.5 24.2C68.1 23.6 67.5 23.3 66.7 23.3C66.2 23.3 65.7 23.5 65.3 23.8C64.9 24.1 64.6 24.6 64.5 25.1C64.4 25.4 64.4 25.6 64.4 25.7V27.3C64.4 28 64.6 28.5 65 29C65.4 29.5 66 29.7 66.6 29.7C67.4 29.7 68 29.4 68.4 28.8C68.9 28.2 69.1 27.4 69.1 26.4Z" fill="white"/>
<path d="M83.2 27.5C83.2 28.6 82.8 29.5 82.1 30.2C81.3 31 80.1 31.3 78.6 31.3C77.2 31.3 76.1 31 75.3 30.5L75.8 28.8C76.7 29.3 77.7 29.6 78.8 29.6C79.6 29.6 80.2 29.4 80.6 29.1C81 28.7 81.2 28.3 81.2 27.7C81.2 27.2 81 26.7 80.7 26.4C80.3 26 79.7 25.7 78.9 25.4C76.6 24.6 75.5 23.3 75.5 21.7C75.5 20.6 75.9 19.8 76.7 19.1C77.5 18.4 78.5 18.1 79.9 18.1C81.1 18.1 82 18.3 82.8 18.7L82.3 20.4C81.6 20 80.8 19.8 79.8 19.8C79.1 19.8 78.5 20 78.1 20.3C77.8 20.6 77.6 21 77.6 21.5C77.6 22 77.8 22.4 78.2 22.8C78.5 23.1 79.2 23.4 80.1 23.8C81.2 24.2 82 24.8 82.6 25.4C82.9 25.9 83.2 26.6 83.2 27.5Z" fill="white"/>
<path d="M90 23.4H87.7V27.9C87.7 29 88.1 29.6 88.9 29.6C89.3 29.6 89.6 29.6 89.8 29.5L89.9 31.1C89.5 31.3 89 31.3 88.3 31.3C87.5 31.3 86.8 31.1 86.4 30.6C85.9 30.1 85.7 29.3 85.7 28.1V23.4H84.3V21.8H85.7V20.1L87.7 19.5V21.8H90V23.4Z" fill="white"/>
<path d="M100.3 26.4C100.3 27.8 99.9 29 99.1 29.9C98.2 30.8 97.1 31.3 95.7 31.3C94.3 31.3 93.2 30.8 92.4 29.9C91.6 29 91.2 27.9 91.2 26.5C91.2 25.1 91.6 23.9 92.5 23C93.3 22.1 94.5 21.6 95.9 21.6C97.3 21.6 98.4 22.1 99.2 23C99.9 23.9 100.3 25 100.3 26.4ZM98.1 26.5C98.1 25.6 97.9 24.9 97.5 24.3C97.1 23.6 96.4 23.2 95.6 23.2C94.8 23.2 94.1 23.6 93.7 24.3C93.3 24.9 93.1 25.7 93.1 26.5C93.1 27.4 93.3 28.1 93.7 28.7C94.1 29.4 94.8 29.8 95.6 29.8C96.4 29.8 97 29.4 97.5 28.7C97.9 28.1 98.1 27.3 98.1 26.5Z" fill="white"/>
<path d="M107 23.6C106.8 23.6 106.6 23.5 106.3 23.5C105.6 23.5 105 23.8 104.6 24.3C104.3 24.8 104.1 25.4 104.1 26.1V31H102V24.6C102 23.5 102 22.6 101.9 21.7H103.7L103.8 23.5H103.9C104.1 22.9 104.5 22.4 104.9 22C105.4 21.7 105.9 21.5 106.4 21.5C106.6 21.5 106.8 21.5 106.9 21.5V23.6H107Z" fill="white"/>
<path d="M116.2 26C116.2 26.4 116.2 26.7 116.1 26.9H109.9C109.9 27.8 110.2 28.5 110.8 29C111.3 29.4 112 29.7 112.8 29.7C113.7 29.7 114.6 29.6 115.3 29.3L115.6 30.7C114.7 31.1 113.7 31.3 112.5 31.3C111.1 31.3 109.9 30.9 109.1 30C108.3 29.2 107.9 28 107.9 26.6C107.9 25.2 108.3 24 109 23.1C109.8 22.1 110.9 21.6 112.3 21.6C113.6 21.6 114.7 22.1 115.3 23.1C116 23.9 116.2 24.9 116.2 26ZM114.3 25.5C114.3 24.9 114.2 24.4 113.9 23.9C113.5 23.3 113 23 112.3 23C111.6 23 111.1 23.3 110.7 23.8C110.4 24.2 110.2 24.8 110.1 25.4H114.3V25.5Z" fill="white"/>
<path d="M45.4 10.3C45.4 11.4 45.1 12.3 44.4 12.9C43.8 13.4 42.9 13.7 41.7 13.7C41.1 13.7 40.6 13.7 40.2 13.6V7.39999C40.7 7.29999 41.3 7.29999 42 7.29999C43.1 7.29999 43.9 7.49999 44.5 7.99999C45 8.49999 45.4 9.29999 45.4 10.3ZM44.3 10.3C44.3 9.59999 44.1 8.99999 43.7 8.59999C43.3 8.19999 42.7 7.99999 42 7.99999C41.7 7.99999 41.4 7.99999 41.2 8.09999V12.8C41.3 12.8 41.6 12.8 41.9 12.8C42.7 12.8 43.3 12.6 43.7 12.2C44.1 11.8 44.3 11.1 44.3 10.3Z" fill="white"/>
<path d="M51 11.3C51 12 50.8 12.6 50.4 13C50 13.5 49.4 13.7 48.7 13.7C48 13.7 47.5 13.5 47.1 13C46.7 12.6 46.5 12 46.5 11.3C46.5 10.6 46.7 10 47.1 9.60003C47.5 9.10003 48.1 8.90002 48.8 8.90002C49.5 8.90002 50 9.10003 50.4 9.60003C50.8 10 51 10.6 51 11.3ZM50 11.3C50 10.9 49.9 10.5 49.7 10.2C49.5 9.80003 49.2 9.70003 48.8 9.70003C48.4 9.70003 48.1 9.90003 47.9 10.2C47.7 10.5 47.6 10.9 47.6 11.3C47.6 11.7 47.7 12.1 47.9 12.4C48.1 12.8 48.4 12.9 48.8 12.9C49.2 12.9 49.5 12.7 49.7 12.3C49.9 12.1 50 11.7 50 11.3Z" fill="white"/>
<path d="M58.7 9L57.3 13.6H56.4L55.8 11.6C55.6 11.1 55.5 10.6 55.4 10.1C55.3 10.6 55.2 11.1 55 11.6L54.4 13.6H53.5L52 9H53L53.5 11.2C53.6 11.7 53.7 12.2 53.8 12.7C53.9 12.3 54 11.8 54.2 11.2L54.8 9H55.6L56.2 11.1C56.4 11.6 56.5 12.1 56.6 12.6C56.7 12.1 56.8 11.6 56.9 11.1L57.5 9H58.7Z" fill="white"/>
<path d="M63.9 13.6H62.9V11C62.9 10.2 62.6 9.79999 62 9.79999C61.7 9.79999 61.5 9.89999 61.3 10.1C61.1 10.3 61 10.6 61 10.9V13.6H60V10.3C60 9.89999 60 9.49999 60 8.99999H60.9V9.69999C61 9.49999 61.2 9.29999 61.4 9.09999C61.7 8.89999 62 8.79999 62.3 8.79999C62.7 8.79999 63.1 8.89999 63.4 9.19999C63.8 9.49999 63.9 9.99999 63.9 10.7V13.6Z" fill="white"/>
<path d="M66.7 13.6H65.7V6.90002H66.7V13.6Z" fill="white"/>
<path d="M72.7 11.3C72.7 12 72.5 12.6 72.1 13C71.7 13.5 71.1 13.7 70.4 13.7C69.7 13.7 69.2 13.5 68.8 13C68.4 12.6 68.2 12 68.2 11.3C68.2 10.6 68.4 10 68.8 9.60003C69.2 9.20003 69.8 8.90002 70.5 8.90002C71.2 8.90002 71.7 9.10003 72.1 9.60003C72.5 10 72.7 10.6 72.7 11.3ZM71.7 11.3C71.7 10.9 71.6 10.5 71.4 10.2C71.2 9.80003 70.9 9.70003 70.5 9.70003C70.1 9.70003 69.8 9.90003 69.6 10.2C69.4 10.5 69.3 10.9 69.3 11.3C69.3 11.7 69.4 12.1 69.6 12.4C69.8 12.8 70.1 12.9 70.5 12.9C70.9 12.9 71.2 12.7 71.4 12.3C71.6 12.1 71.7 11.7 71.7 11.3Z" fill="white"/>
<path d="M77.6 13.6H76.7L76.6 13.1C76.3 13.5 75.8 13.7 75.3 13.7C74.9 13.7 74.5 13.6 74.3 13.3C74.1 13 73.9 12.7 73.9 12.4C73.9 11.8 74.1 11.4 74.6 11.1C75.1 10.8 75.7 10.7 76.6 10.7V10.6C76.6 10 76.3 9.70003 75.7 9.70003C75.2 9.70003 74.9 9.80002 74.5 10L74.3 9.30002C74.7 9.00002 75.2 8.90002 75.9 8.90002C77.1 8.90002 77.7 9.50002 77.7 10.8V12.5C77.6 13 77.6 13.3 77.6 13.6ZM76.6 12V11.3C75.5 11.3 74.9 11.6 74.9 12.2C74.9 12.4 75 12.6 75.1 12.7C75.2 12.8 75.4 12.9 75.6 12.9C75.8 12.9 76 12.8 76.2 12.7C76.4 12.6 76.5 12.4 76.6 12.2C76.6 12.2 76.6 12.1 76.6 12Z" fill="white"/>
<path d="M83.4 13.6H82.5V12.9C82.2 13.5 81.7 13.7 81 13.7C80.4 13.7 80 13.5 79.6 13.1C79.2 12.7 79.1 12.1 79.1 11.4C79.1 10.7 79.3 10.1 79.7 9.6C80.1 9.2 80.6 9 81.1 9C81.7 9 82.1 9.2 82.4 9.6V7H83.4V12.4C83.4 12.8 83.4 13.2 83.4 13.6ZM82.4 11.7V10.9C82.4 10.8 82.4 10.7 82.4 10.6C82.3 10.4 82.2 10.2 82 10C81.8 9.8 81.6 9.8 81.3 9.8C80.9 9.8 80.6 10 80.4 10.3C80.2 10.6 80.1 11 80.1 11.5C80.1 12 80.2 12.3 80.4 12.6C80.6 12.9 80.9 13.1 81.3 13.1C81.6 13.1 81.9 13 82.1 12.7C82.3 12.3 82.4 12 82.4 11.7Z" fill="white"/>
<path d="M92.1 11.3C92.1 12 91.9 12.6 91.5 13C91.1 13.5 90.5 13.7 89.8 13.7C89.1 13.7 88.6 13.5 88.2 13C87.8 12.6 87.6 12 87.6 11.3C87.6 10.6 87.8 10 88.2 9.60003C88.6 9.10003 89.2 8.90002 89.9 8.90002C90.6 8.90002 91.1 9.10003 91.5 9.60003C91.9 10 92.1 10.6 92.1 11.3ZM91 11.3C91 10.9 90.9 10.5 90.7 10.2C90.5 9.80003 90.2 9.70003 89.8 9.70003C89.4 9.70003 89.1 9.90003 88.9 10.2C88.7 10.5 88.6 10.9 88.6 11.3C88.6 11.7 88.7 12.1 88.9 12.4C89.1 12.8 89.4 12.9 89.8 12.9C90.2 12.9 90.5 12.7 90.7 12.3C90.9 12.1 91 11.7 91 11.3Z" fill="white"/>
<path d="M97.6 13.6H96.6V11C96.6 10.2 96.3 9.79999 95.7 9.79999C95.4 9.79999 95.2 9.89999 95 10.1C94.8 10.3 94.7 10.6 94.7 10.9V13.6H93.7V10.3C93.7 9.89999 93.7 9.49999 93.7 8.99999H94.6V9.69999C94.7 9.49999 94.9 9.29999 95.1 9.09999C95.4 8.89999 95.7 8.79999 96 8.79999C96.4 8.79999 96.8 8.89999 97.1 9.19999C97.5 9.49999 97.6 9.99999 97.6 10.7V13.6Z" fill="white"/>
<path d="M104.4 9.80002H103.3V12C103.3 12.6 103.5 12.8 103.9 12.8C104.1 12.8 104.2 12.8 104.4 12.8V13.6C104.2 13.7 103.9 13.7 103.6 13.7C103.2 13.7 102.9 13.6 102.7 13.3C102.5 13.1 102.4 12.6 102.4 12.1V9.80002H101.7V9.00002H102.4V8.20003L103.4 7.90002V9.00002H104.5V9.80002H104.4Z" fill="white"/>
<path d="M109.8 13.6H108.8V11C108.8 10.2 108.5 9.80002 107.9 9.80002C107.4 9.80002 107.1 10 106.9 10.5C106.9 10.6 106.9 10.7 106.9 10.9V13.6H105.9V6.90002H106.9V9.70003C107.2 9.20003 107.7 8.90002 108.3 8.90002C108.7 8.90002 109.1 9.00002 109.3 9.30002C109.6 9.60002 109.8 10.2 109.8 10.8V13.6Z" fill="white"/>
<path d="M115.3 11.1C115.3 11.3 115.3 11.4 115.3 11.6H112.3C112.3 12.1 112.5 12.4 112.7 12.6C113 12.8 113.3 12.9 113.7 12.9C114.2 12.9 114.6 12.8 114.9 12.7L115.1 13.4C114.7 13.6 114.2 13.7 113.6 13.7C112.9 13.7 112.3 13.5 111.9 13.1C111.5 12.7 111.3 12.1 111.3 11.4C111.3 10.7 111.5 10.1 111.9 9.7C112.3 9.2 112.8 9 113.5 9C114.2 9 114.7 9.2 115 9.7C115.2 10 115.3 10.5 115.3 11.1ZM114.4 10.8C114.4 10.5 114.3 10.2 114.2 10C114 9.7 113.8 9.6 113.4 9.6C113.1 9.6 112.8 9.7 112.6 10C112.4 10.2 112.3 10.5 112.3 10.8H114.4Z" fill="white"/>
</svg>
