<svg width="128" height="40" viewBox="0 0 128 40" fill="none" xmlns="http://www.w3.org/2000/svg">
<path d="M124 40H4C1.8 40 0 38.2 0 36V4C0 1.8 1.8 0 4 0H124C126.2 0 128 1.8 128 4V36C128 38.2 126.2 40 124 40Z" fill="black"/>
<path fill-rule="evenodd" clip-rule="evenodd" d="M9.8 19.6V9.1C9.8 8.5 10.3 8 10.8 8C11.3 8 11.5 8.1 11.8 8.3L31.1 18.9C31.5 19.1 31.7 19.4 31.7 19.7C31.7 20 31.5 20.3 31.1 20.5L11.8 31.1C11.6 31.2 11.3 31.4 10.8 31.4C10.3 31.4 9.8 30.9 9.8 30.3V19.6Z" fill="url(#paint0_linear_401_3)"/>
<path fill-rule="evenodd" clip-rule="evenodd" d="M22.3 19.7L10.6 8C10.7 8 10.7 8 10.8 8C11.3 8 11.5 8.1 11.8 8.3L26 16.1L22.3 19.7Z" fill="url(#paint1_linear_401_3)"/>
<path fill-rule="evenodd" clip-rule="evenodd" d="M25.9 23.2L22.3 19.6L26 15.9L31.1 18.7C31.5 18.9 31.7 19.2 31.7 19.5C31.7 19.8 31.5 20.1 31.1 20.3L25.9 23.2Z" fill="url(#paint2_linear_401_3)"/>
<path fill-rule="evenodd" clip-rule="evenodd" d="M10.7 31.2L22.3 19.6L25.9 23.2L11.8 30.9C11.5 31.1 11.3 31.2 10.7 31.2C10.8 31.2 10.8 31.2 10.7 31.2Z" fill="url(#paint3_linear_401_3)"/>
<path fill-rule="evenodd" clip-rule="evenodd" d="M71.1 33.9C70.6 33.5 70.2 32.8 70 32.4L71.6 31.7C71.7 31.9 71.9 32.2 72.1 32.5C72.5 32.9 73.1 33.3 73.7 33.3C74.3 33.3 75 33 75.4 32.5C75.7 32 75.9 31.5 75.9 30.8V30.2C74.7 31.7 72.2 31.5 70.8 29.9C69.3 28.3 69.3 25.6 70.8 24C72.3 22.5 74.5 22.3 75.8 23.7V23H77.5V30.5C77.5 32.4 76.8 33.5 75.9 34.2C75.3 34.7 74.4 34.9 73.6 34.9C72.7 34.8 71.8 34.5 71.1 33.9ZM113 34.3L114.7 30.3L111.7 23.4H113.4L115.5 28.3L117.6 23.4H119.3L114.7 34.3H113ZM104.9 30.5C104.4 30 104.2 29.3 104.2 28.6C104.2 28 104.4 27.4 104.8 27C105.5 26.3 106.5 26 107.6 26C108.3 26 108.9 26.1 109.4 26.4C109.4 25.2 108.4 24.7 107.6 24.7C106.9 24.7 106.2 25.1 105.9 25.8L104.4 25.2C104.7 24.5 105.5 23.2 107.5 23.2C108.5 23.2 109.5 23.5 110.1 24.2C110.7 24.9 110.9 25.7 110.9 26.8V31H109.2V30.3C109 30.6 108.6 30.8 108.3 31C107.9 31.2 107.4 31.3 106.9 31.3C106.3 31.2 105.4 31 104.9 30.5ZM51.6 26.9C51.6 24.9 53.1 22.7 55.8 22.7C58.4 22.7 60 24.9 60 26.9C60 28.9 58.5 31.1 55.8 31.1C53.1 31.1 51.6 28.9 51.6 26.9ZM60.6 26.9C60.6 24.9 62.1 22.7 64.8 22.7C67.4 22.7 69 24.9 69 26.9C69 28.9 67.5 31.1 64.8 31.1C62.2 31.1 60.6 28.9 60.6 26.9ZM40.3 29.1C37.8 26.6 37.9 22.5 40.4 19.9C41.7 18.6 43.3 18 45 18C46.6 18 48.2 18.6 49.4 19.8L48.2 21.1C46.4 19.3 43.5 19.4 41.8 21.2C40 23.1 40 26 41.8 27.9C43.6 29.8 46.6 29.9 48.4 28C49 27.4 49.2 26.6 49.3 25.8H45.1V24H51C51.1 24.4 51.1 24.9 51.1 25.4C51.1 26.9 50.5 28.4 49.5 29.4C48.4 30.5 46.8 31.1 45.2 31.1C43.4 31 41.6 30.4 40.3 29.1ZM82.6 29.8C81.1 28.2 81.1 25.5 82.6 23.8C84.1 22.2 86.6 22.2 88 23.8C88.5 24.3 88.8 25 89.1 25.7L83.6 28C83.9 28.7 84.6 29.3 85.6 29.3C86.5 29.3 87.1 29 87.7 28.1L89.2 29.1C89 29.3 88.8 29.5 88.7 29.7C87 31.4 84.1 31.4 82.6 29.8ZM93 31V19.9H96.6C98.7 19.9 100.4 21.4 100.4 23.2C100.4 25 98.9 26.5 97 26.5H94.8V30.9H93V31ZM101.4 31V19.9H103.1V31H101.4ZM78.8 30.8V18.4H80.6V30.8H78.8ZM109.3 27.7C108.9 27.4 108.3 27.3 107.7 27.3C106.5 27.3 105.8 27.9 105.8 28.6C105.8 29.3 106.5 29.7 107.2 29.7C108.2 29.7 109.3 28.9 109.3 27.7ZM58.1 26.9C58.1 25.7 57.3 24.4 55.8 24.4C54.3 24.4 53.5 25.7 53.5 26.9C53.5 28.1 54.3 29.4 55.8 29.4C57.2 29.4 58.1 28.1 58.1 26.9ZM67.1 26.9C67.1 25.7 66.3 24.4 64.8 24.4C63.3 24.4 62.5 25.7 62.5 26.9C62.5 28.1 63.3 29.4 64.8 29.4C66.3 29.4 67.1 28.1 67.1 26.9ZM76 27.6C76 27.5 76 27.4 76.1 27.3C76.1 27.2 76.1 27 76.1 26.9C76.1 26.8 76.1 26.6 76.1 26.5V26.4C76.1 26.3 76 26.1 76 26C75.7 25 74.8 24.3 73.9 24.3C72.7 24.3 71.7 25.5 71.7 26.8C71.7 28.2 72.7 29.3 74 29.3C74.8 29.4 75.6 28.7 76 27.6ZM83.3 26.7L87 25.1C86.6 24.4 86 24.2 85.5 24.2C84 24.3 83.1 25.9 83.3 26.7ZM98.6 23.3C98.6 22.3 97.8 21.6 96.7 21.6H94.7V25.1H96.8C97.8 25.1 98.6 24.3 98.6 23.3Z" fill="white"/>
<path fill-rule="evenodd" clip-rule="evenodd" d="M114.3 32.2999H114.2V32.2H114.3H114.2V32.2999H114.3Z" fill="white"/>
<path fill-rule="evenodd" clip-rule="evenodd" d="M114.5 32.2999C114.5 32.1999 114.5 32.1999 114.5 32.2999C114.4 32.1999 114.4 32.1999 114.5 32.2999C114.4 32.2999 114.4 32.2999 114.5 32.2999ZM114.5 32.2C114.5 32.3 114.5 32.3 114.5 32.2C114.5 32.3 114.4 32.3 114.5 32.2C114.5 32.2 114.4 32.2 114.5 32.2Z" fill="white"/>
<path fill-rule="evenodd" clip-rule="evenodd" d="M114.6 32.2H114.5H114.6V32.2999V32.2Z" fill="white"/>
<path d="M38.9 10.1C38.9 8.29995 40.2 7.19995 41.8 7.19995C42.9 7.19995 43.6 7.69995 44.1 8.39995L43.3 8.89995C43 8.49995 42.5 8.19995 41.8 8.19995C40.7 8.19995 39.9 8.99995 39.9 10.2C39.9 11.4 40.7 12.2 41.8 12.2C42.4 12.2 42.9 11.9 43.1 11.7V10.7999H41.5V9.89995H44.2V12C43.7 12.6 42.9 13 41.9 13C40.2 13 38.9 11.8 38.9 10.1Z" fill="white"/>
<path d="M45.4 12.9V7.30005H49.2V8.20005H46.3V9.60005H49.1V10.5H46.3V12.1H49.2V13L45.4 12.9Z" fill="white"/>
<path d="M52 12.9V8.20005H50.3V7.30005H54.7V8.20005H53V12.9H52Z" fill="white"/>
<path d="M58.1 12.9V7.30005H59.1V12.9H58.1Z" fill="white"/>
<path d="M61.8 12.9V8.20005H60.1V7.30005H64.5V8.20005H62.8V12.9H61.8Z" fill="white"/>
<path d="M67.7 10.1C67.7 8.39995 68.9 7.19995 70.6 7.19995C72.3 7.19995 73.5 8.39995 73.5 10.1C73.5 11.8 72.3 13 70.6 13C68.9 13 67.7 11.7 67.7 10.1ZM72.4 10.1C72.4 8.89995 71.7 8.09995 70.5 8.09995C69.4 8.09995 68.6 8.99995 68.6 10.1C68.6 11.3 69.3 12.1 70.5 12.1C71.7 12.1 72.4 11.2 72.4 10.1Z" fill="white"/>
<path d="M78.5 12.9L75.6 8.90005V12.9H74.6V7.30005H75.6L78.5 11.2001V7.30005H79.5V12.9H78.5Z" fill="white"/>
<defs>
<linearGradient id="paint0_linear_401_3" x1="16.2674" y1="6.5736" x2="21.8656" y2="29.5645" gradientUnits="userSpaceOnUse">
<stop stop-color="#006884"/>
<stop offset="1" stop-color="#8AD1D0"/>
</linearGradient>
<linearGradient id="paint1_linear_401_3" x1="9.44071" y1="9.8438" x2="24.6967" y2="18.0913" gradientUnits="userSpaceOnUse">
<stop stop-color="#24BBB6"/>
<stop offset="1" stop-color="#DBE692"/>
</linearGradient>
<linearGradient id="paint2_linear_401_3" x1="26.9944" y1="23.6201" x2="26.9944" y2="15.6717" gradientUnits="userSpaceOnUse">
<stop stop-color="#FCC072"/>
<stop offset="1" stop-color="#F58A5B"/>
</linearGradient>
<linearGradient id="paint3_linear_401_3" x1="12.3947" y1="33.2691" x2="24.4464" y2="21.0039" gradientUnits="userSpaceOnUse">
<stop stop-color="#712B8F"/>
<stop offset="1" stop-color="#EA1D27"/>
</linearGradient>
</defs>
</svg>
