<svg height="512pt" viewBox="0 0 512 512.00038" width="512pt" xmlns="http://www.w3.org/2000/svg" xmlns:xlink="http://www.w3.org/1999/xlink"><linearGradient id="a" gradientUnits="userSpaceOnUse" x1="169.9940010834" x2="299.4934135904" y1="71.98622701" y2="349.0548448864"><stop offset="0" stop-color="#00c3ff"/><stop offset="1" stop-color="#00b0ed"/></linearGradient><linearGradient id="b"><stop offset="0" stop-color="#00b0ed" stop-opacity="0"/><stop offset="1" stop-color="#00a2ce"/></linearGradient><linearGradient id="c" gradientUnits="userSpaceOnUse" x1="364.2825237824" x2="-379.5864327114" xlink:href="#b" y1="314.0868361356" y2="-84.9521808166"/><linearGradient id="d" gradientUnits="userSpaceOnUse" x1="256.0003" x2="256.0003" xlink:href="#b" y1="437.383215389" y2="504.4720097064"/><path d="m414.683594 157.367188c-11.328125 5.925781-28.390625 8.664062-34.046875 9.453124-.046875-.273437-.09375-.535156-.140625-.796874 19.230468-11.894532 25.117187-34.289063 25.117187-34.289063-11.910156 6.808594-22.40625 10.585937-30.3125 12.679687-4.445312 1.191407-8.074219 1.835938-10.683593 2.195313-11.984376-12.289063-28.71875-19.914063-47.242188-19.914063-36.445312 0-65.996094 29.542969-65.996094 66 0 1.3125.035156 2.617188.121094 3.910157.175781 3.160156.578125 6.265625 1.199219 9.285156-17.640625-.261719-81.316407-5.671875-134.082031-66.964844 0 0-29.382813 51.265625 20.015624 86.285157 0 0-20.015624-.625-30.640624-8.128907 0 0-3.125 49.398438 53.769531 65.023438 0 0-20.003907 5.007812-30.015625.628906 0 0 10.007812 42.515625 60.027344 45.648437 0 0-35.875 32.84375-94.457032 28.117188 28.8125 18.242188 62.972656 28.800781 99.597656 28.800781 102.980469 0 186.464844-83.480469 186.464844-186.460937 0-1.285156-.011718-2.570313-.039062-3.855469.027344-.761719.039062-1.519531.039062-2.289063 0-.535156-.011718-1.070312-.019531-1.605468 19.039063-12.6875 31.324219-33.722656 31.324219-33.722656zm0 0" fill="#00ACEE"/></svg>